<svg xmlns="http://www.w3.org/2000/svg" width="1706.667" height="1706.667" preserveAspectRatio="xMidYMid meet" version="1.0" viewBox="0 0 1280 1280"><metadata>Created by potrace 1.11, written by Peter Selinger 2001-2013</metadata><g fill="#000" stroke="none"><path d="M6105 12794 c-27 -2 -115 -8 -195 -14 -1369 -100 -2677 -650 -3730 -1570 -154 -134 -466 -447 -596 -595 -819 -938 -1343 -2080 -1518 -3305 -48 -330 -60 -517 -60 -910 0 -393 12 -576 60 -910 176 -1231 701 -2372 1526 -3312 143 -163 443 -463 598 -598 969 -843 2153 -1373 3415 -1529 302 -38 444 -46 805 -45 382 0 575 13 900 60 1952 278 3669 1448 4652 3169 457 800 726 1662 815 2615 24 257 24 841 0 1100 -88 947 -358 1814 -812 2610 -514 902 -1247 1675 -2112 2228 -274 175 -675 388 -956 506 -610 258 -1264 420 -1937 481 -163 15 -739 28 -855 19z m435 -2255 c170 -680 336 -1533 434 -2234 75 -539 115 -929 158 -1555 6 -95 12 -543 14 -1054 l4 -890 62 -110 c84 -151 320 -619 397 -791 163 -363 296 -690 421 -1038 61 -168 63 -158 -37 -178 -35 -7 -63 -17 -63 -22 0 -5 14 -84 31 -176 l31 -166 127 -122 126 -122 -350 -1 -350 0 99 99 100 100 -33 169 -33 170 -61 -15 c-34 -7 -72 -16 -84 -20 -13 -3 -23 -2 -23 1 0 4 -25 158 -55 344 -95 573 -153 838 -246 1115 -76 229 -75 229 -83 41 -20 -449 -78 -1117 -112 -1272 -4 -21 -8 -22 -134 -22 l-130 0 0 -90 0 -90 -80 0 -80 0 0 -157 0 -156 113 -108 112 -108 -350 -1 -350 0 113 113 112 112 0 153 0 152 -80 0 -79 0 -3 88 -3 87 -128 3 c-89 2 -129 6 -132 15 -10 27 -55 427 -75 662 -11 138 -26 369 -33 515 -15 305 -9 301 -92 56 -87 -260 -154 -568 -246 -1131 -28 -176 -53 -321 -54 -323 -1 -1 -39 6 -84 16 -44 11 -81 19 -81 18 0 0 -16 -77 -35 -171 l-34 -170 97 -98 97 -97 -350 0 -350 1 128 122 129 123 34 169 c19 93 34 171 34 175 0 4 -35 14 -79 24 l-79 16 40 113 c119 338 279 737 428 1062 133 291 364 746 451 889 18 30 19 62 19 821 0 949 12 1254 75 1895 97 982 299 2130 540 3080 69 267 66 259 76 232 5 -13 36 -131 69 -263z" transform="translate(0.000000,1280.000000) scale(0.100000,-0.100000)"/></g></svg>